<?xml version="1.0" standalone="no"?>
<!DOCTYPE svg PUBLIC "-//W3C//DTD SVG 20010904//EN"
 "http://www.w3.org/TR/2001/REC-SVG-20010904/DTD/svg10.dtd">
<svg version="1.0" xmlns="http://www.w3.org/2000/svg"
 width="512.000000pt" height="512.000000pt" viewBox="0 0 512.000000 512.000000"
 preserveAspectRatio="xMidYMid meet">

<g transform="translate(0.000000,512.000000) scale(0.100000,-0.100000)"
fill="#000000" stroke="none">
<path d="M960 5103 c-40 -27 -49 -45 -49 -93 0 -81 41 -110 156 -110 l82 0 4
-902 c3 -882 4 -905 24 -993 87 -366 269 -644 562 -858 l63 -47 -84 0 c-115 0
-157 -29 -158 -107 0 -33 6 -50 29 -75 l29 -33 284 -3 284 -3 -67 -407 c-36
-224 -77 -447 -89 -497 -61 -245 -185 -488 -347 -680 l-59 -70 -119 -5 c-130
-5 -156 -14 -180 -60 -19 -37 -19 -63 0 -100 33 -64 -40 -60 1235 -60 1275 0
1202 -4 1235 60 19 37 19 63 0 100 -24 46 -50 55 -180 60 l-119 5 -59 70
c-160 190 -282 428 -346 675 -12 47 -53 270 -90 497 l-67 412 284 3 284 3 29
33 c49 55 36 138 -28 171 -12 6 -58 11 -103 11 l-82 0 63 47 c292 213 476 495
562 858 20 88 21 114 24 993 l4 902 82 0 c115 0 156 29 156 110 0 48 -9 66
-49 93 -23 16 -132 17 -1600 17 -1468 0 -1577 -1 -1600 -17z m2790 -1060 c-1
-940 -2 -951 -61 -1127 -135 -403 -475 -704 -894 -791 -583 -120 -1174 223
-1365 793 -58 173 -59 187 -60 1125 l0 857 1190 0 1190 0 0 -857z m-1036
-2190 c3 -16 38 -221 76 -456 75 -457 103 -571 186 -768 45 -107 131 -261 198
-354 l36 -50 -325 -3 c-179 -1 -471 -1 -650 0 l-325 3 36 50 c67 93 153 247
198 354 83 197 111 311 186 768 38 235 73 440 76 456 l6 27 148 0 148 0 6 -27z"/>
<path d="M2491 3944 c-57 -47 -50 -137 13 -175 39 -24 73 -24 112 0 92 56 52
201 -56 201 -27 0 -48 -8 -69 -26z"/>
</g>
</svg>
