<?xml version="1.0" standalone="no"?>
<!DOCTYPE svg PUBLIC "-//W3C//DTD SVG 20010904//EN"
 "http://www.w3.org/TR/2001/REC-SVG-20010904/DTD/svg10.dtd">
<svg version="1.0" xmlns="http://www.w3.org/2000/svg"
 width="512.000000pt" height="512.000000pt" viewBox="0 0 512.000000 512.000000"
 preserveAspectRatio="xMidYMid meet">

<g transform="translate(0.000000,512.000000) scale(0.100000,-0.100000)"
fill="#000000" stroke="none">
<path d="M1604 5101 c-38 -23 -10 58 -373 -1092 -298 -945 -303 -964 -282
-1125 25 -184 108 -357 237 -490 69 -70 187 -156 252 -183 18 -8 32 -21 32
-30 -1 -19 -295 -1119 -302 -1126 -2 -2 -95 20 -207 50 -112 30 -214 55 -228
55 -91 0 -138 -112 -76 -179 26 -28 68 -41 553 -171 288 -77 539 -140 558
-140 25 0 43 9 68 34 40 40 45 83 15 132 -22 37 -35 41 -293 110 -111 29 -175
51 -173 58 3 6 66 241 140 521 75 281 143 533 151 560 l14 50 128 1 c150 2
243 23 366 84 213 104 365 281 430 500 14 47 25 82 25 77 1 -4 39 -179 86
-390 80 -360 87 -388 135 -484 108 -218 324 -384 572 -439 40 -9 124 -17 187
-18 l114 -2 149 -555 c81 -305 149 -561 151 -569 1 -11 -51 -29 -213 -73 -250
-67 -265 -76 -265 -156 0 -58 29 -97 80 -107 39 -7 1076 267 1115 295 53 38
56 124 5 169 -39 33 -85 28 -305 -32 -107 -29 -196 -52 -198 -51 -5 4 -302
1118 -302 1132 0 7 24 25 53 39 87 44 158 98 233 175 113 117 184 244 221 396
22 93 22 277 -1 361 -20 76 -570 1819 -592 1879 -20 54 -56 83 -103 83 -20 -1
-207 -47 -416 -104 -259 -70 -381 -98 -383 -90 -2 6 15 94 37 196 49 221 50
247 14 288 -26 28 -69 41 -681 205 -359 96 -663 175 -675 175 -12 0 -36 -9
-53 -19z m676 -370 c283 -76 516 -143 518 -149 2 -6 -36 -185 -84 -399 -47
-213 -106 -478 -130 -588 -124 -579 -184 -835 -207 -885 -67 -151 -198 -266
-372 -326 -71 -25 -94 -28 -205 -28 -109 0 -134 4 -198 27 -233 82 -395 276
-433 517 -19 122 -3 185 206 830 24 74 114 361 201 638 121 384 161 502 173
502 9 0 248 -63 531 -139z m1569 -1043 c90 -288 190 -604 222 -703 187 -581
182 -561 182 -670 2 -175 -55 -308 -188 -440 -132 -133 -265 -188 -450 -189
-177 0 -319 58 -446 184 -122 120 -133 149 -239 635 -50 226 -111 500 -135
610 l-46 201 75 337 c40 186 76 340 79 343 4 4 754 210 777 213 3 1 79 -234
169 -521z"/>
<path d="M1968 3221 c-28 -25 -33 -36 -33 -76 0 -40 5 -51 33 -76 72 -64 182
-18 182 76 0 94 -110 140 -182 76z"/>
<path d="M1494 3060 c-35 -14 -64 -59 -64 -101 0 -115 162 -148 207 -42 38 92
-51 180 -143 143z"/>
<path d="M3353 2631 c-69 -43 -63 -152 10 -187 108 -51 208 78 130 166 -37 41
-94 50 -140 21z"/>
<path d="M3805 2331 c-80 -33 -83 -156 -5 -196 39 -20 68 -19 106 4 114 70 23
242 -101 192z"/>
<path d="M4558 5104 c-15 -8 -35 -28 -43 -44 -20 -39 -20 -161 0 -200 17 -32
61 -60 95 -60 34 0 78 28 95 60 9 18 15 56 15 100 0 82 -17 123 -60 145 -36
19 -67 19 -102 -1z"/>
<path d="M4158 4704 c-30 -16 -58 -61 -58 -94 0 -34 28 -78 60 -95 18 -9 56
-15 100 -15 44 0 82 6 100 15 32 17 60 61 60 95 0 34 -28 78 -60 95 -38 20
-165 20 -202 -1z"/>
<path d="M4858 4704 c-30 -16 -58 -61 -58 -94 0 -34 28 -78 60 -95 18 -9 56
-15 100 -15 44 0 82 6 100 15 32 17 60 61 60 95 0 34 -28 78 -60 95 -38 20
-165 20 -202 -1z"/>
<path d="M458 4654 c-15 -8 -35 -28 -43 -44 -20 -39 -20 -161 0 -200 17 -32
61 -60 95 -60 34 0 78 28 95 60 20 39 20 161 0 200 -28 54 -94 74 -147 44z"/>
<path d="M4558 4404 c-15 -8 -35 -28 -43 -44 -20 -39 -20 -161 0 -200 17 -32
61 -60 95 -60 34 0 78 28 95 60 9 18 15 56 15 100 0 82 -17 123 -60 145 -36
19 -67 19 -102 -1z"/>
<path d="M58 4254 c-30 -16 -58 -61 -58 -94 0 -34 28 -78 60 -95 18 -9 56 -15
100 -15 44 0 82 6 100 15 32 17 60 61 60 95 0 34 -28 78 -60 95 -38 20 -165
20 -202 -1z"/>
<path d="M758 4254 c-30 -16 -58 -61 -58 -94 0 -34 28 -78 60 -95 18 -9 56
-15 100 -15 44 0 82 6 100 15 32 17 60 61 60 95 0 34 -28 78 -60 95 -38 20
-165 20 -202 -1z"/>
<path d="M458 3954 c-15 -8 -35 -28 -43 -44 -20 -39 -20 -161 0 -200 17 -32
61 -60 95 -60 34 0 78 28 95 60 20 39 20 161 0 200 -28 54 -94 74 -147 44z"/>
</g>
</svg>
